# xmcd CD database file
# Copyright (C) 1993-1998 Ti Kan
#
# Track frame offsets:
#	190
#	21110
#	40687
#	52397
#	69142
#	89427
#	102702
#	116610
#	134307
#	148207
#	158540
#	177792
#	198525
#	225947
#	259570
#	278085
#	292932
#
# Disc length: 4113 seconds
#
# Revision: 1
# Processed by: cddbd v1.4b41PL1 Copyright (c) Steve Scherf et al.
# Submitted via: CDValet v3.31 - Copyright (c) 1997 Greg Leichner
#
DISCID=ed100f11
DTITLE=Hollywood Fats - Rock This House
DYEAR=1900
DGENRE=
TTITLE0=Rock This House
TTITLE1=She's Dynamite
TTITLE2=Okie Doakie Stomp
TTITLE3=Suitcase Blues
TTITLE4=Red Headed Woman
TTITLE5=Lonesome
TTITLE6=All Pretty Women
TTITLE7=Prettiest Little Thing
TTITLE8=Caldonia
TTITLE9=Have A Good Time
TTITLE10=Poor Boy
TTITLE11=Too Many Drivers
TTITLE12=I Got My Eyes On You
TTITLE13=Little Girl
TTITLE14=Kansas City
TTITLE15=Shake Your Boogie
TTITLE16=Read About My Baby
EXTD=No Blues Collection is complete without this CD!
EXTT0=
EXTT1=
EXTT2=
EXTT3=
EXTT4=
EXTT5=
EXTT6=
EXTT7=
EXTT8=
EXTT9=
EXTT10=
EXTT11=
EXTT12=
EXTT13=
EXTT14=
EXTT15=
EXTT16=
PLAYORDER=
